# xmcd
#
# Track frame offsets:
#	150
#	18146
#	34877
#	50235
#	61174
#	75099
#	91137
#	106932
#	121217
#	134794
#	145884
#	157856
#	169844
#	187788
#
# Disc length: 2710 seconds
#
# Revision: 0
# Processed by: cddbd v1.4PL0 Copyright (c) Steve Scherf et al.
# Submitted via: EasyCDDAExtractor 5.0.5.1
#
DISCID=aa0a940e
DTITLE=Heartward - No More Comedy
DYEAR=2002
DGENRE=Blues
TTITLE0=No More Comedy
TTITLE1=Born On A Train
TTITLE2=White Socks
TTITLE3=Mason Bogie
TTITLE4=Come All Ye Lasses
TTITLE5=Slave Train
TTITLE6=The Last One-Horse Town Blues
TTITLE7=Baby, You Drive Me Crazy
TTITLE8=River Is Deep
TTITLE9=Rockin' Home The Blues
TTITLE10=Bluebird Special
TTITLE11=Red Is The Rose
TTITLE12=No More Comedy (alternate version)
TTITLE13=White Socks (archive version)
EXTD=
EXTT0=
EXTT1=
EXTT2=
EXTT3=
EXTT4=
EXTT5=
EXTT6=
EXTT7=
EXTT8=
EXTT9=
EXTT10=
EXTT11=
EXTT12=
EXTT13=
PLAYORDER=
